<svg xmlns="http://www.w3.org/2000/svg" width="96" height="96" viewBox="0 0 96 96">
  <g fill="none" fill-rule="evenodd">
    <rect width="96" height="96" fill="#3D3F4D"/>
    <path fill="#FFF" d="M8,8 L88,8 L88,88 L8,88 L8,8 Z M10,10 L10,86 L86,86 L86,10 L10,10 Z"/>
    <polygon fill="#FFF" points="16 68 28 80 16 80"/>
    <path fill="#FFF" d="M56.024,25.528 L56.024,30.328 L53.288,30.328 L53.288,25.528 L49.032,19 L52.344,19 L54.76,23.192 L57.176,19 L60.376,19 L56.024,25.528 Z M61.124,30.328 L61.124,19 L68.74,19 L68.74,21.32 L63.764,21.32 L63.764,23.448 L68.468,23.448 L68.468,25.64 L63.764,25.64 L63.764,27.992 L69.028,27.992 L69.028,30.328 L61.124,30.328 Z M70.136,30.328 L70.136,19 L72.888,19 L72.888,27.944 L77.272,27.944 L77.272,30.328 L70.136,30.328 Z M42,43.328 L42,32 L44.752,32 L44.752,40.944 L49.136,40.944 L49.136,43.328 L42,43.328 Z M61.044,37.616 C61.044,38.5120045 60.8893349,39.330663 60.58,40.072 C60.2706651,40.813337 59.8413361,41.4479974 59.292,41.976 C58.7426639,42.5040026 58.0893371,42.9119986 57.332,43.2 C56.5746629,43.4880014 55.7533378,43.632 54.868,43.632 C53.9826623,43.632 53.1640038,43.4880014 52.412,43.2 C51.6599963,42.9119986 51.0093361,42.5040026 50.46,41.976 C49.9106639,41.4479974 49.4813349,40.813337 49.172,40.072 C48.8626651,39.330663 48.708,38.5120045 48.708,37.616 C48.708,36.7093288 48.8626651,35.8906703 49.172,35.16 C49.4813349,34.4293297 49.9106639,33.8080026 50.46,33.296 C51.0093361,32.7839974 51.6599963,32.3893347 52.412,32.112 C53.1640038,31.8346653 53.9826623,31.696 54.868,31.696 C55.7533378,31.696 56.5746629,31.8346653 57.332,32.112 C58.0893371,32.3893347 58.7426639,32.7839974 59.292,33.296 C59.8413361,33.8080026 60.2706651,34.4293297 60.58,35.16 C60.8893349,35.8906703 61.044,36.7093288 61.044,37.616 Z M58.116,37.616 C58.116,37.1253309 58.0360008,36.6666688 57.876,36.24 C57.7159992,35.8133312 57.4946681,35.4480015 57.212,35.144 C56.9293319,34.8399985 56.588002,34.6000009 56.188,34.424 C55.787998,34.2479991 55.3480024,34.16 54.868,34.16 C54.3879976,34.16 53.9506687,34.2479991 53.556,34.424 C53.1613314,34.6000009 52.8200015,34.8399985 52.532,35.144 C52.2439986,35.4480015 52.0226675,35.8133312 51.868,36.24 C51.7133326,36.6666688 51.636,37.1253309 51.636,37.616 C51.636,38.1280026 51.7159992,38.5999978 51.876,39.032 C52.0360008,39.4640022 52.2573319,39.8346651 52.54,40.144 C52.8226681,40.4533349 53.1613314,40.6959991 53.556,40.872 C53.9506687,41.0480009 54.3879976,41.136 54.868,41.136 C55.3480024,41.136 55.7853314,41.0480009 56.18,40.872 C56.5746687,40.6959991 56.9159986,40.4533349 57.204,40.144 C57.4920015,39.8346651 57.7159992,39.4640022 57.876,39.032 C58.0360008,38.5999978 58.116,38.1280026 58.116,37.616 Z M74.152,43.328 L71.448,43.328 L69.208,35.664 L69.16,35.664 L66.92,43.328 L64.2,43.328 L60.984,32 L63.928,32 L65.72,39.536 L65.768,39.536 L67.784,32 L70.632,32 L72.664,39.536 L72.712,39.536 L74.536,32 L77.384,32 L74.152,43.328 Z M55.952,48.488 C55.952,49.1493366 55.8293346,49.7066644 55.584,50.16 C55.3386654,50.6133356 55.0080021,50.9786653 54.592,51.256 C54.1759979,51.5333347 53.6960027,51.7359994 53.152,51.864 C52.6079973,51.9920006 52.0426696,52.056 51.456,52.056 L50.096,52.056 L50.096,56.328 L47.36,56.328 L47.36,45 L51.52,45 C52.1386698,45 52.7173306,45.0613327 53.256,45.184 C53.7946694,45.3066673 54.263998,45.5039986 54.664,45.776 C55.064002,46.0480014 55.3786655,46.4053311 55.608,46.848 C55.8373345,47.2906689 55.952,47.8373301 55.952,48.488 Z M53.216,48.504 C53.216,48.237332 53.1626672,48.0186675 53.056,47.848 C52.9493328,47.6773325 52.8053342,47.5440005 52.624,47.448 C52.4426658,47.3519995 52.2373345,47.2880002 52.008,47.256 C51.7786655,47.2239998 51.5413346,47.208 51.296,47.208 L50.096,47.208 L50.096,49.88 L51.248,49.88 C51.5040013,49.88 51.7493322,49.8586669 51.984,49.816 C52.2186678,49.7733331 52.4293324,49.6986672 52.616,49.592 C52.8026676,49.4853328 52.9493328,49.3440009 53.056,49.168 C53.1626672,48.9919991 53.216,48.770668 53.216,48.504 Z M56.9,56.328 L56.9,45 L64.516,45 L64.516,47.32 L59.54,47.32 L59.54,49.448 L64.244,49.448 L64.244,51.64 L59.54,51.64 L59.54,53.992 L64.804,53.992 L64.804,56.328 L56.9,56.328 Z M73.112,56.328 L68.552,48.92 L68.504,48.92 L68.568,56.328 L65.912,56.328 L65.912,45 L69.032,45 L73.576,52.392 L73.624,52.392 L73.56,45 L76.216,45 L76.216,56.328 L73.112,56.328 Z M64.78,67.76 C64.2786642,68.3360029 63.6600037,68.7919983 62.924,69.128 C62.1879963,69.4640017 61.3400048,69.632 60.38,69.632 C59.505329,69.632 58.6973371,69.4880014 57.956,69.2 C57.214663,68.9119986 56.5720027,68.5040026 56.028,67.976 C55.4839973,67.4479974 55.0573349,66.8160037 54.748,66.08 C54.4386651,65.3439963 54.284,64.5333378 54.284,63.648 C54.284,62.7413288 54.4413318,61.9200037 54.756,61.184 C55.0706683,60.4479963 55.5053306,59.8213359 56.06,59.304 C56.6146695,58.7866641 57.2653296,58.3893347 58.012,58.112 C58.7586704,57.8346653 59.5639957,57.696 60.428,57.696 C61.228004,57.696 62.0146628,57.8373319 62.788,58.12 C63.5613372,58.4026681 64.1879976,58.8159973 64.668,59.36 L62.812,61.216 C62.5559987,60.8639982 62.2200021,60.6026675 61.804,60.432 C61.3879979,60.2613325 60.9613355,60.176 60.524,60.176 C60.0439976,60.176 59.604002,60.2639991 59.204,60.44 C58.803998,60.6160009 58.4600015,60.8586651 58.172,61.168 C57.8839986,61.4773349 57.6600008,61.8426646 57.5,62.264 C57.3399992,62.6853354 57.26,63.1466642 57.26,63.648 C57.26,64.1600026 57.3399992,64.6293312 57.5,65.056 C57.6600008,65.4826688 57.8813319,65.8479985 58.164,66.152 C58.4466681,66.4560015 58.7853314,66.6933325 59.18,66.864 C59.5746687,67.0346675 60.0066643,67.12 60.476,67.12 C61.0200027,67.12 61.4946647,67.0133344 61.9,66.8 C62.3053354,66.5866656 62.6306655,66.309335 62.876,65.968 L64.78,67.76 Z M65.748,69.328 L65.748,58 L68.5,58 L68.5,69.328 L65.748,69.328 Z M70.136,69.328 L70.136,58 L72.888,58 L72.888,66.944 L77.272,66.944 L77.272,69.328 L70.136,69.328 Z"/>
  </g>
</svg>
